# xmcd
#
# Track frame offsets: 
#        150
#        4189
#        16748
#        30475
#        44130
#        54783
#        67197
#        81825
#        90579
#        105807
#        124200
#        135996
#        154102
#
# Disc length: 2169 seconds
#
# Revision: 3
# Processed by: cddbd v1.5.2PL0 Copyright (c) Steve Scherf et al.
# Submitted via: ExactAudioCopy v0.99pb5
#
DISCID=9708770d
DTITLE=Fred Eaglesmith - Ralph's Last Show [disc 1]
DYEAR=2001
DGENRE=Folk-Rock
TTITLE0=Intro
TTITLE1=Freight Train
TTITLE2=105
TTITLE3=Mighty Big Car
TTITLE4=White Trash
TTITLE5=Good Enough
TTITLE6=Livin' Out on the Road
TTITLE7=Carter
TTITLE8=Time To Get a Gun
TTITLE9=Flowers in the Dell
TTITLE10=He's a Good Dog
TTITLE11=Lucille
TTITLE12=How's Ernie?
EXTD=
EXTT0=
EXTT1=
EXTT2=
EXTT3=
EXTT4=
EXTT5=
EXTT6=
EXTT7=
EXTT8=
EXTT9=
EXTT10=
EXTT11=
EXTT12=
PLAYORDER=
